<svg width="64" height="57" viewBox="0 0 64 57" fill="none" xmlns="http://www.w3.org/2000/svg">
<path d="M6.9 57H57.1C62.2333 57 65.4333 51.4333 62.8667 47L37.7667 3.63335C35.2 -0.799984 28.8 -0.799984 26.2333 3.63335L1.13333 47C-1.43334 51.4333 1.76666 57 6.9 57ZM32 33.6667C30.1667 33.6667 28.6667 32.1667 28.6667 30.3334V23.6667C28.6667 21.8333 30.1667 20.3333 32 20.3333C33.8333 20.3333 35.3333 21.8333 35.3333 23.6667V30.3334C35.3333 32.1667 33.8333 33.6667 32 33.6667ZM35.3333 47H28.6667V40.3334H35.3333V47Z" fill="#AF8965"/>
</svg>
