<svg width="44" height="44" viewBox="0 0 44 44" fill="none" xmlns="http://www.w3.org/2000/svg">
<path d="M43 1.03333C42.6916 0.724319 42.3253 0.479161 41.9221 0.311889C41.5188 0.144618 41.0866 0.0585171 40.65 0.0585171C40.2134 0.0585171 39.7812 0.144618 39.3779 0.311889C38.9747 0.479161 38.6084 0.724319 38.3 1.03333L22 17.3L5.70001 0.999997C5.39141 0.691391 5.02504 0.446591 4.62182 0.279574C4.21861 0.112557 3.78645 0.0265961 3.35001 0.0265961C2.91358 0.0265961 2.48142 0.112558 2.0782 0.279574C1.67499 0.446591 1.30862 0.691391 1.00001 0.999997C0.691406 1.3086 0.446606 1.67497 0.279589 2.07819C0.112573 2.4814 0.0266113 2.91356 0.0266113 3.35C0.0266113 3.78643 0.112573 4.2186 0.279589 4.62181C0.446606 5.02502 0.691406 5.39139 1.00001 5.7L17.3 22L1.00001 38.3C0.691406 38.6086 0.446606 38.975 0.279589 39.3782C0.112573 39.7814 0.0266113 40.2136 0.0266113 40.65C0.0266113 41.0864 0.112573 41.5186 0.279589 41.9218C0.446606 42.325 0.691406 42.6914 1.00001 43C1.30862 43.3086 1.67499 43.5534 2.0782 43.7204C2.48142 43.8874 2.91358 43.9734 3.35001 43.9734C3.78645 43.9734 4.21861 43.8874 4.62182 43.7204C5.02504 43.5534 5.39141 43.3086 5.70001 43L22 26.7L38.3 43C38.6086 43.3086 38.975 43.5534 39.3782 43.7204C39.7814 43.8874 40.2136 43.9734 40.65 43.9734C41.0864 43.9734 41.5186 43.8874 41.9218 43.7204C42.325 43.5534 42.6914 43.3086 43 43C43.3086 42.6914 43.5534 42.325 43.7204 41.9218C43.8874 41.5186 43.9734 41.0864 43.9734 40.65C43.9734 40.2136 43.8874 39.7814 43.7204 39.3782C43.5534 38.975 43.3086 38.6086 43 38.3L26.7 22L43 5.7C44.2667 4.43333 44.2667 2.3 43 1.03333Z" fill="#060606"/>
</svg>
