<svg width="42" height="50" viewBox="0 0 42 50" fill="none" xmlns="http://www.w3.org/2000/svg">
<path d="M37.5258 8.14609C34.6969 3.29688 30.825 0.625 26.625 0.625H15.375C11.175 0.625 7.30313 3.29688 4.47422 8.14609C1.83047 12.6766 0.375 18.6719 0.375 25C0.375 31.3281 1.83047 37.3234 4.47422 41.8539C7.30313 46.7031 11.175 49.375 15.375 49.375H26.625C30.825 49.375 34.6969 46.7031 37.5258 41.8539C40.1695 37.3234 41.625 31.3281 41.625 25C41.625 18.6719 40.1695 12.6766 37.5258 8.14609ZM37.8258 23.125H30.3258C30.1792 19.2774 29.4131 15.4787 28.057 11.875H35.2266C36.6609 15.0109 37.6078 18.9062 37.8258 23.125ZM32.9977 8.125H26.2641C25.4811 6.7662 24.5368 5.50707 23.4516 4.375H26.625C28.9688 4.375 31.1719 5.78125 32.9977 8.125ZM4.125 25C4.125 13.8203 9.28125 4.375 15.375 4.375C21.4688 4.375 26.625 13.8203 26.625 25C26.625 36.1797 21.4688 45.625 15.375 45.625C9.28125 45.625 4.125 36.1797 4.125 25ZM26.625 45.625H23.4586C24.5438 44.4929 25.4882 43.2338 26.2711 41.875H33.0047C31.1719 44.2188 28.9688 45.625 26.625 45.625ZM35.2266 38.125H28.0594C29.4155 34.5213 30.1816 30.7226 30.3281 26.875H37.8281C37.6078 31.0938 36.6609 34.9891 35.2266 38.125Z" fill="white"/>
</svg>
