<svg width="44" height="30" viewBox="0 0 44 30" fill="none" xmlns="http://www.w3.org/2000/svg">
<path d="M43.5001 26.25V3.75C43.5001 1.675 41.8251 0 39.7501 0H4.7251C2.6501 0 0.975098 1.675 0.975098 3.75V26.25C0.975098 28.325 2.6501 30 4.7251 30H39.7501C41.8251 30 43.5001 28.325 43.5001 26.25ZM40.2251 3.475C41.0501 4.3 40.6001 5.15 40.1501 5.575L30.0001 14.875L39.7501 25.025C40.0501 25.375 40.2501 25.925 39.9001 26.3C39.5751 26.7 38.8251 26.675 38.5001 26.425L27.5751 17.1L22.2251 21.975L16.9001 17.1L5.9751 26.425C5.6501 26.675 4.9001 26.7 4.5751 26.3C4.2251 25.925 4.4251 25.375 4.7251 25.025L14.4751 14.875L4.3251 5.575C3.8751 5.15 3.4251 4.3 4.2501 3.475C5.0751 2.65 5.9251 3.05 6.6251 3.65L22.2251 16.25L37.8501 3.65C38.5501 3.05 39.4001 2.65 40.2251 3.475Z" fill="#71522F"/>
</svg>
