<svg width="48" height="60" viewBox="0 0 48 60" fill="none" xmlns="http://www.w3.org/2000/svg">
<path d="M34.2893 1.07143C34.2893 0.758929 34.3897 0.502232 34.5906 0.301339C34.7915 0.100446 35.0482 0 35.3607 0H45.0036C45.5839 0 46.0862 0.212054 46.5103 0.636161C46.9344 1.06027 47.1464 1.5625 47.1464 2.14286V11.7857C47.1464 12.0982 47.046 12.3549 46.8451 12.5558C46.6442 12.7567 46.3875 12.8571 46.075 12.8571H43.9321C43.6196 12.8571 43.3629 12.7567 43.1621 12.5558C42.9612 12.3549 42.8607 12.0982 42.8607 11.7857V7.29911L34.3562 15.8371C37.1687 19.3638 38.575 23.3705 38.575 27.8571C38.575 32.7902 36.9288 37.0815 33.6364 40.731C30.344 44.3806 26.2759 46.4732 21.4321 47.0089V51.4286H24.6464C24.9589 51.4286 25.2156 51.529 25.4165 51.7299C25.6174 51.9308 25.7179 52.1875 25.7179 52.5V54.6429C25.7179 54.9554 25.6174 55.2121 25.4165 55.4129C25.2156 55.6138 24.9589 55.7143 24.6464 55.7143H21.4321V58.9286C21.4321 59.2411 21.3317 59.4978 21.1308 59.6987C20.9299 59.8996 20.6732 60 20.3607 60H18.2179C17.9054 60 17.6487 59.8996 17.4478 59.6987C17.2469 59.4978 17.1464 59.2411 17.1464 58.9286V55.7143H13.9321C13.6196 55.7143 13.3629 55.6138 13.1621 55.4129C12.9612 55.2121 12.8607 54.9554 12.8607 54.6429V52.5C12.8607 52.1875 12.9612 51.9308 13.1621 51.7299C13.3629 51.529 13.6196 51.4286 13.9321 51.4286H17.1464V47.0089C13.8205 46.6518 10.8016 45.5022 8.08951 43.5603C5.37745 41.6183 3.29598 39.1239 1.84509 36.077C0.394196 33.0301 -0.197322 29.7768 0.0705353 26.317C0.427678 21.7634 2.21339 17.8181 5.42768 14.481C8.64196 11.144 12.5147 9.21875 17.046 8.70536C19.6799 8.39286 22.2246 8.60491 24.6799 9.34152C27.1353 10.0781 29.3451 11.2277 31.3094 12.7902L39.8473 4.28571H35.3607C35.0482 4.28571 34.7915 4.18527 34.5906 3.98437C34.3897 3.78348 34.2893 3.52679 34.2893 3.21429V1.07143ZM19.2893 42.8571C23.4187 42.8571 26.9511 41.3895 29.8864 38.4542C32.8217 35.519 34.2893 31.9866 34.2893 27.8571C34.2893 23.7277 32.8217 20.1953 29.8864 17.26C26.9511 14.3248 23.4187 12.8571 19.2893 12.8571C15.1598 12.8571 11.6275 14.3248 8.69219 17.26C5.75692 20.1953 4.28929 23.7277 4.28929 27.8571C4.28929 31.9866 5.75692 35.519 8.69219 38.4542C11.6275 41.3895 15.1598 42.8571 19.2893 42.8571Z" fill="white"/>
</svg>
