<svg width="29" height="70" viewBox="0 0 29 70" fill="none" xmlns="http://www.w3.org/2000/svg">
<path d="M5.05054 15C5.05054 12.3478 6.05907 9.8043 7.85427 7.92893C9.64947 6.05357 12.0843 5 14.6231 5C17.1619 5 19.5967 6.05357 21.3919 7.92893C23.1871 9.8043 24.1956 12.3478 24.1956 15C24.1956 18.625 23.1881 23.37 21.6924 28.2875C20.2254 33.1175 18.409 37.7275 17.0449 40.9525C16.6668 41.8425 15.7718 42.5 14.6231 42.5C13.4744 42.5 12.5793 41.8425 12.2012 40.95C10.8371 37.7275 9.02075 33.1175 7.55376 28.2875C6.05566 23.37 5.05054 18.625 5.05054 15ZM14.6231 0C10.8149 0 7.16267 1.58035 4.46987 4.3934C1.77708 7.20644 0.264282 11.0218 0.264282 15C0.264282 23.8075 5.01704 36.34 7.82658 42.975C9.00878 45.775 11.6867 47.5 14.6231 47.5C17.5594 47.5 20.235 45.775 21.4196 42.975C24.2315 36.34 28.9819 23.805 28.9819 15C28.9819 11.0218 27.4691 7.20644 24.7763 4.3934C22.0835 1.58035 18.4313 0 14.6231 0ZM18.2128 61.25C18.2128 60.2554 17.8346 59.3016 17.1614 58.5984C16.4882 57.8951 15.5751 57.5 14.6231 57.5C13.671 57.5 12.758 57.8951 12.0848 58.5984C11.4116 59.3016 11.0334 60.2554 11.0334 61.25C11.0334 62.2446 11.4116 63.1984 12.0848 63.9016C12.758 64.6049 13.671 65 14.6231 65C15.5751 65 16.4882 64.6049 17.1614 63.9016C17.8346 63.1984 18.2128 62.2446 18.2128 61.25ZM22.999 61.25C22.999 63.5706 22.1166 65.7962 20.5458 67.4372C18.975 69.0781 16.8445 70 14.6231 70C12.4016 70 10.2712 69.0781 8.70037 67.4372C7.12957 65.7962 6.24711 63.5706 6.24711 61.25C6.24711 58.9294 7.12957 56.7038 8.70037 55.0628C10.2712 53.4219 12.4016 52.5 14.6231 52.5C16.8445 52.5 18.975 53.4219 20.5458 55.0628C22.1166 56.7038 22.999 58.9294 22.999 61.25Z" fill="#AF8965"/>
</svg>
