<svg width="24" height="54" viewBox="0 0 24 54" fill="none" xmlns="http://www.w3.org/2000/svg">
<path d="M4.5 12C4.5 10.0109 5.29018 8.10322 6.6967 6.6967C8.10322 5.29018 10.0109 4.5 12 4.5C13.9891 4.5 15.8968 5.29018 17.3033 6.6967C18.7098 8.10322 19.5 10.0109 19.5 12C19.5 14.7188 18.7106 18.2775 17.5388 21.9656C16.3894 25.5881 14.9662 29.0456 13.8975 31.4644C13.6012 32.1319 12.9 32.625 12 32.625C11.1 32.625 10.3988 32.1319 10.1025 31.4625C9.03375 29.0456 7.61062 25.5881 6.46125 21.9656C5.2875 18.2775 4.5 14.7188 4.5 12ZM12 0.75C9.01631 0.75 6.15483 1.93526 4.04505 4.04505C1.93526 6.15483 0.75 9.01631 0.75 12C0.75 18.6056 4.47375 28.005 6.675 32.9813C7.60125 35.0812 9.69938 36.375 12 36.375C14.3006 36.375 16.3969 35.0812 17.325 32.9813C19.5281 28.005 23.25 18.6038 23.25 12C23.25 9.01631 22.0647 6.15483 19.955 4.04505C17.8452 1.93526 14.9837 0.75 12 0.75ZM14.8125 46.6875C14.8125 45.9416 14.5162 45.2262 13.9887 44.6988C13.4613 44.1713 12.7459 43.875 12 43.875C11.2541 43.875 10.5387 44.1713 10.0113 44.6988C9.48382 45.2262 9.1875 45.9416 9.1875 46.6875C9.1875 47.4334 9.48382 48.1488 10.0113 48.6762C10.5387 49.2037 11.2541 49.5 12 49.5C12.7459 49.5 13.4613 49.2037 13.9887 48.6762C14.5162 48.1488 14.8125 47.4334 14.8125 46.6875ZM18.5625 46.6875C18.5625 48.428 17.8711 50.0972 16.6404 51.3279C15.4097 52.5586 13.7405 53.25 12 53.25C10.2595 53.25 8.59032 52.5586 7.35961 51.3279C6.1289 50.0972 5.4375 48.428 5.4375 46.6875C5.4375 44.947 6.1289 43.2778 7.35961 42.0471C8.59032 40.8164 10.2595 40.125 12 40.125C13.7405 40.125 15.4097 40.8164 16.6404 42.0471C17.8711 43.2778 18.5625 44.947 18.5625 46.6875Z" fill="white"/>
</svg>
