<svg width="60" height="60" viewBox="0 0 60 60" fill="none" xmlns="http://www.w3.org/2000/svg">
<path d="M30 5.625C20.6836 5.625 13.125 12.8191 13.125 21.6797C13.125 31.875 24.375 48.0316 28.5059 53.6121C28.6773 53.8477 28.9021 54.0394 29.1617 54.1715C29.4214 54.3037 29.7086 54.3726 30 54.3726C30.2914 54.3726 30.5786 54.3037 30.8383 54.1715C31.0979 54.0394 31.3227 53.8477 31.4941 53.6121C35.625 48.034 46.875 31.8832 46.875 21.6797C46.875 12.8191 39.3164 5.625 30 5.625Z" stroke="white" stroke-width="3.75" stroke-linecap="round" stroke-linejoin="round"/>
<path d="M30 28.125C33.1066 28.125 35.625 25.6066 35.625 22.5C35.625 19.3934 33.1066 16.875 30 16.875C26.8934 16.875 24.375 19.3934 24.375 22.5C24.375 25.6066 26.8934 28.125 30 28.125Z" stroke="white" stroke-width="3.75" stroke-linecap="round" stroke-linejoin="round"/>
</svg>
