<svg width="54" height="71" viewBox="0 0 54 71" fill="none" xmlns="http://www.w3.org/2000/svg">
<path d="M7.00001 70.3333C5.16668 70.3333 3.59779 69.6811 2.29334 68.3767C0.988898 67.0722 0.335566 65.5022 0.333344 63.6667V30.3333C0.333344 28.5 0.986676 26.9311 2.29334 25.6267C3.60001 24.3222 5.1689 23.6689 7.00001 23.6667H10.3333V17C10.3333 12.3889 11.9589 8.45889 15.21 5.21C18.4611 1.96111 22.3911 0.335553 27 0.333331C31.6089 0.331108 35.54 1.95666 38.7933 5.21C42.0467 8.46333 43.6711 12.3933 43.6667 17V23.6667H47C48.8333 23.6667 50.4033 24.32 51.71 25.6267C53.0167 26.9333 53.6689 28.5022 53.6667 30.3333V63.6667C53.6667 65.5 53.0145 67.07 51.71 68.3767C50.4056 69.6833 48.8356 70.3356 47 70.3333H7.00001ZM7.00001 63.6667H47V30.3333H7.00001V63.6667ZM27 53.6667C28.8333 53.6667 30.4033 53.0144 31.71 51.71C33.0167 50.4056 33.6689 48.8356 33.6667 47C33.6645 45.1644 33.0122 43.5956 31.71 42.2933C30.4078 40.9911 28.8378 40.3378 27 40.3333C25.1622 40.3289 23.5933 40.9822 22.2933 42.2933C20.9933 43.6044 20.34 45.1733 20.3333 47C20.3267 48.8267 20.98 50.3967 22.2933 51.71C23.6067 53.0233 25.1756 53.6756 27 53.6667ZM17 23.6667H37V17C37 14.2222 36.0278 11.8611 34.0833 9.91666C32.1389 7.97222 29.7778 7 27 7C24.2222 7 21.8611 7.97222 19.9167 9.91666C17.9722 11.8611 17 14.2222 17 17V23.6667Z" fill="#060606"/>
</svg>
