<svg width="44" height="30" viewBox="0 0 44 30" fill="none" xmlns="http://www.w3.org/2000/svg">
<path d="M43.5 26.25V3.75C43.5 1.675 41.825 0 39.75 0H4.725C2.65 0 0.974998 1.675 0.974998 3.75V26.25C0.974998 28.325 2.65 30 4.725 30H39.75C41.825 30 43.5 28.325 43.5 26.25ZM40.225 3.475C41.05 4.3 40.6 5.15 40.15 5.575L30 14.875L39.75 25.025C40.05 25.375 40.25 25.925 39.9 26.3C39.575 26.7 38.825 26.675 38.5 26.425L27.575 17.1L22.225 21.975L16.9 17.1L5.975 26.425C5.65 26.675 4.9 26.7 4.575 26.3C4.225 25.925 4.425 25.375 4.725 25.025L14.475 14.875L4.325 5.575C3.875 5.15 3.425 4.3 4.25 3.475C5.075 2.65 5.925 3.05 6.625 3.65L22.225 16.25L37.85 3.65C38.55 3.05 39.4 2.65 40.225 3.475Z" fill="#060606"/>
</svg>
