<svg width="46" height="46" viewBox="0 0 46 46" fill="none" xmlns="http://www.w3.org/2000/svg">
<path d="M19.75 31.75L20.125 33.5625C20.25 34.1458 20.5317 34.615 20.97 34.97C21.4083 35.325 21.9183 35.5017 22.5 35.5H23.5C24.0833 35.5 24.5942 35.3125 25.0325 34.9375C25.4708 34.5625 25.7517 34.0833 25.875 33.5L26.25 31.75C26.75 31.5417 27.2192 31.3233 27.6575 31.095C28.0958 30.8667 28.5433 30.585 29 30.25L30.8125 30.8125C31.3542 30.9792 31.8858 30.9583 32.4075 30.75C32.9292 30.5417 33.335 30.2083 33.625 29.75L34.125 28.875C34.4167 28.375 34.5208 27.8333 34.4375 27.25C34.3542 26.6667 34.0833 26.1875 33.625 25.8125L32.25 24.625C32.3333 24.0417 32.375 23.5 32.375 23C32.375 22.5 32.3333 21.9583 32.25 21.375L33.625 20.1875C34.0833 19.8125 34.3542 19.3442 34.4375 18.7825C34.5208 18.2208 34.4167 17.6892 34.125 17.1875L33.5625 16.25C33.2708 15.7917 32.875 15.4583 32.375 15.25C31.875 15.0417 31.3542 15.0208 30.8125 15.1875L29 15.75C28.5417 15.4167 28.0933 15.1358 27.655 14.9075C27.2167 14.6792 26.7483 14.46 26.25 14.25L25.875 12.4375C25.75 11.8542 25.4692 11.3858 25.0325 11.0325C24.5958 10.6792 24.085 10.5017 23.5 10.5H22.5C21.9167 10.5 21.4067 10.6875 20.97 11.0625C20.5333 11.4375 20.2517 11.9167 20.125 12.5L19.75 14.25C19.25 14.4583 18.7817 14.6775 18.345 14.9075C17.9083 15.1375 17.46 15.4183 17 15.75L15.1875 15.1875C14.6458 15.0208 14.115 15.0417 13.595 15.25C13.075 15.4583 12.6683 15.7917 12.375 16.25L11.875 17.125C11.5833 17.625 11.4792 18.1667 11.5625 18.75C11.6458 19.3333 11.9167 19.8125 12.375 20.1875L13.75 21.375C13.6667 21.9583 13.625 22.5 13.625 23C13.625 23.5 13.6667 24.0417 13.75 24.625L12.375 25.8125C11.9167 26.1875 11.6458 26.6567 11.5625 27.22C11.4792 27.7833 11.5833 28.3142 11.875 28.8125L12.4375 29.75C12.7292 30.2083 13.125 30.5417 13.625 30.75C14.125 30.9583 14.6458 30.9792 15.1875 30.8125L17 30.25C17.4583 30.5833 17.9067 30.865 18.345 31.095C18.7833 31.325 19.2517 31.5433 19.75 31.75ZM23 28C21.625 28 20.4483 27.5108 19.47 26.5325C18.4917 25.5542 18.0017 24.3767 18 23C17.9983 21.6233 18.4883 20.4467 19.47 19.47C20.4517 18.4933 21.6283 18.0033 23 18C24.3717 17.9967 25.5492 18.4867 26.5325 19.47C27.5158 20.4533 28.005 21.63 28 23C27.995 24.37 27.5058 25.5475 26.5325 26.5325C25.5592 27.5175 24.3817 28.0067 23 28ZM5.5 45.5C4.125 45.5 2.94833 45.0108 1.97 44.0325C0.991667 43.0542 0.501667 41.8767 0.5 40.5V5.5C0.5 4.125 0.99 2.94833 1.97 1.97C2.95 0.991667 4.12667 0.501667 5.5 0.5H40.5C41.875 0.5 43.0525 0.99 44.0325 1.97C45.0125 2.95 45.5017 4.12667 45.5 5.5V40.5C45.5 41.875 45.0108 43.0525 44.0325 44.0325C43.0542 45.0125 41.8767 45.5017 40.5 45.5H5.5ZM5.5 40.5H40.5V5.5H5.5V40.5Z" fill="white"/>
</svg>
