<svg width="70" height="70" viewBox="0 0 70 70" fill="none" xmlns="http://www.w3.org/2000/svg">
<path fill-rule="evenodd" clip-rule="evenodd" d="M45 17.5C45 20.1522 43.9464 22.6957 42.0711 24.5711C40.1957 26.4464 37.6522 27.5 35 27.5C32.3478 27.5 29.8043 26.4464 27.9289 24.5711C26.0536 22.6957 25 20.1522 25 17.5C25 14.8478 26.0536 12.3043 27.9289 10.4289C29.8043 8.55357 32.3478 7.5 35 7.5C37.6522 7.5 40.1957 8.55357 42.0711 10.4289C43.9464 12.3043 45 14.8478 45 17.5ZM52.5 17.5C52.5 22.1413 50.6563 26.5925 47.3744 29.8744C44.0925 33.1563 39.6413 35 35 35C30.3587 35 25.9075 33.1563 22.6256 29.8744C19.3437 26.5925 17.5 22.1413 17.5 17.5C17.5 12.8587 19.3437 8.40752 22.6256 5.12563C25.9075 1.84374 30.3587 0 35 0C39.6413 0 44.0925 1.84374 47.3744 5.12563C50.6563 8.40752 52.5 12.8587 52.5 17.5ZM7.5 57.5C7.5 56.48 8.6 53.455 14.1 50.205C19.19 47.2 26.6 45 35 45C43.4 45 50.81 47.2 55.9 50.205C61.4 53.455 62.5 56.48 62.5 57.5C62.5 58.8261 61.9732 60.0979 61.0355 61.0355C60.0979 61.9732 58.8261 62.5 57.5 62.5H12.5C11.1739 62.5 9.90215 61.9732 8.96447 61.0355C8.02678 60.0979 7.5 58.8261 7.5 57.5ZM35 37.5C15.75 37.5 0 47.5 0 57.5C0 60.8152 1.31696 63.9946 3.66117 66.3388C6.00537 68.683 9.18479 70 12.5 70H57.5C60.8152 70 63.9946 68.683 66.3388 66.3388C68.683 63.9946 70 60.8152 70 57.5C70 47.5 54.25 37.5 35 37.5Z" fill="white"/>
</svg>
