<svg width="53" height="41" viewBox="0 0 53 41" fill="none" xmlns="http://www.w3.org/2000/svg">
<path d="M12.7619 34.7883C12.4887 34.5054 12.3375 34.1265 12.3409 33.7332C12.3443 33.3399 12.502 32.9637 12.7802 32.6856C13.0583 32.4075 13.4345 32.2497 13.8278 32.2463C14.2211 32.2429 14.6 32.3941 14.8829 32.6673C17.1905 34.9748 20.1304 36.5461 23.331 37.1828C26.5317 37.8194 29.8492 37.4926 32.8641 36.2438C35.879 34.995 38.4559 32.8802 40.269 30.1669C42.082 27.4536 43.0498 24.2636 43.0499 21.0003C43.0675 20.6145 43.2333 20.2503 43.5127 19.9837C43.7921 19.7171 44.1636 19.5685 44.5498 19.5688C44.936 19.5692 45.3072 19.7186 45.5861 19.9858C45.865 20.253 46.03 20.6175 46.0469 21.0033C46.0467 24.8599 44.9029 28.6298 42.7602 31.8363C40.6175 35.0429 37.5721 37.542 34.0091 39.0178C30.446 40.4937 26.5254 40.8798 22.7429 40.1275C18.9605 39.3752 15.486 37.5182 12.7589 34.7913" fill="white"/>
<path d="M36.393 28.2482C36.062 28.469 35.6569 28.5492 35.2667 28.4713C34.8765 28.3934 34.5333 28.1637 34.3125 27.8327C34.0917 27.5017 34.0114 27.0966 34.0894 26.7064C34.1673 26.3162 34.397 25.973 34.728 25.7522L43.728 19.7522C43.8919 19.6429 44.0757 19.5669 44.269 19.5286C44.4622 19.4903 44.6611 19.4905 44.8543 19.5291C45.0475 19.5676 45.2312 19.6439 45.3949 19.7535C45.5586 19.863 45.6992 20.0038 45.8085 20.1677C45.9178 20.3316 45.9938 20.5154 46.0321 20.7086C46.0704 20.9019 46.0702 21.1008 46.0316 21.294C45.993 21.4872 45.9168 21.6709 45.8072 21.8346C45.6976 21.9983 45.5569 22.1389 45.393 22.2482L36.393 28.2482Z" fill="white"/>
<path d="M51.798 29.1692C51.9141 29.3329 51.9961 29.5183 52.0393 29.7142C52.0824 29.9102 52.0858 30.1129 52.0493 30.3102C52.0127 30.5075 51.9369 30.6955 51.8263 30.863C51.7158 31.0305 51.5728 31.1741 51.4057 31.2854C51.2387 31.3966 51.051 31.4732 50.8539 31.5106C50.6567 31.548 50.454 31.5454 50.2579 31.5031C50.0617 31.4607 49.876 31.3794 49.7118 31.264C49.5476 31.1486 49.4083 31.0014 49.302 30.8312L43.302 21.8312C43.0953 21.5002 43.0258 21.1017 43.1082 20.7203C43.1905 20.3389 43.4182 20.0046 43.743 19.7883C44.0678 19.572 44.4641 19.4908 44.8478 19.562C45.2314 19.6331 45.5723 19.8509 45.798 20.1692L51.798 29.1692ZM40.062 6.61521C40.3433 6.89687 40.5011 7.27873 40.5008 7.67677C40.5005 8.07482 40.3422 8.45645 40.0605 8.73771C39.921 8.87698 39.7555 8.98741 39.5734 9.06271C39.3912 9.138 39.196 9.17669 38.9989 9.17655C38.6009 9.17627 38.2193 9.01787 37.938 8.73621C35.6303 6.42857 32.69 4.85712 29.4891 4.2206C26.2882 3.58409 22.9704 3.91109 19.9554 5.16027C16.9404 6.40944 14.3635 8.52467 12.5507 11.2384C10.7378 13.9522 9.77051 17.1426 9.771 20.4062C9.7706 20.804 9.61218 21.1854 9.3306 21.4664C9.04901 21.7475 8.66732 21.9051 8.2695 21.9047C7.87167 21.9043 7.4903 21.7459 7.20928 21.4643C6.92825 21.1827 6.7706 20.801 6.771 20.4032C6.77063 16.546 7.9142 12.7754 10.057 9.56819C12.1999 6.361 15.2458 3.86136 18.8094 2.38542C22.373 0.909487 26.2943 0.523566 30.0773 1.27647C33.8603 2.02938 37.335 3.88729 40.062 6.61521Z" fill="white"/>
<path d="M16.4279 13.155C16.5918 13.0457 16.7756 12.9697 16.9689 12.9314C17.1622 12.8931 17.3611 12.8933 17.5542 12.9319C17.7474 12.9705 17.9311 13.0467 18.0949 13.1563C18.2586 13.2659 18.3991 13.4066 18.5084 13.5705C18.6178 13.7344 18.6937 13.9182 18.732 14.1115C18.7703 14.3047 18.7702 14.5036 18.7316 14.6968C18.693 14.89 18.6167 15.0737 18.5072 15.2374C18.3976 15.4012 18.2568 15.5417 18.0929 15.651L9.09294 21.651C8.92905 21.7603 8.74523 21.8363 8.55198 21.8746C8.35873 21.9129 8.15983 21.9127 7.96664 21.8742C7.77345 21.8356 7.58974 21.7593 7.42602 21.6497C7.2623 21.5402 7.12177 21.3994 7.01244 21.2355C6.90312 21.0716 6.82714 20.8878 6.78886 20.6946C6.75057 20.5013 6.75072 20.3024 6.7893 20.1092C6.82789 19.916 6.90414 19.7323 7.01372 19.5686C7.1233 19.4049 7.26405 19.2643 7.42794 19.155L16.4279 13.155Z" fill="white"/>
<path d="M1.02296 12.2343C0.906884 12.0706 0.824836 11.8853 0.781678 11.6893C0.738521 11.4933 0.73513 11.2906 0.771707 11.0933C0.808284 10.896 0.884085 10.708 0.994622 10.5405C1.10516 10.373 1.24818 10.2294 1.41522 10.1182C1.58227 10.0069 1.76993 9.93036 1.9671 9.89297C2.16427 9.85557 2.36694 9.85813 2.56311 9.90048C2.75927 9.94282 2.94495 10.0241 3.10913 10.1395C3.27332 10.2549 3.41268 10.4021 3.51896 10.5723L9.51896 19.5723C9.72561 19.9033 9.79515 20.3018 9.71281 20.6832C9.63047 21.0646 9.40273 21.399 9.07794 21.6152C8.75315 21.8315 8.35686 21.9127 7.97319 21.8416C7.58952 21.7705 7.24866 21.5526 7.02296 21.2343L1.02296 12.2343Z" fill="white"/>
</svg>
