<svg width="81" height="80" viewBox="0 0 81 80" fill="none" xmlns="http://www.w3.org/2000/svg">
<path d="M40.0938 0C62.1858 0 80.0938 17.908 80.0938 40C80.0938 62.092 62.1858 80 40.0938 80C18.0018 80 0.093811 62.092 0.093811 40C0.093811 17.908 18.0018 0 40.0938 0ZM40.0938 5.58C30.9651 5.58 22.2102 9.20638 15.7552 15.6614C9.30019 22.1164 5.67381 30.8712 5.67381 40C5.67381 49.1288 9.30019 57.8836 15.7552 64.3386C22.2102 70.7936 30.9651 74.42 40.0938 74.42C49.2226 74.42 57.9774 70.7936 64.4324 64.3386C70.8874 57.8836 74.5138 49.1288 74.5138 40C74.5138 30.8712 70.8874 22.1164 64.4324 15.6614C57.9774 9.20638 49.2226 5.58 40.0938 5.58ZM31.0698 48C31.3404 50.197 32.4033 52.2199 34.0591 53.6891C35.7148 55.1583 37.8497 55.973 40.0634 55.9804C42.277 55.9878 44.4173 55.1873 46.0828 53.7291C47.7483 52.2709 48.8246 50.2552 49.1098 48.06C49.1508 47.7012 49.2626 47.354 49.4388 47.0387C49.615 46.7234 49.852 46.4463 50.1362 46.2233C50.4203 46.0004 50.7459 45.836 51.094 45.7399C51.4422 45.6437 51.8059 45.6177 52.1642 45.6632C52.5225 45.7088 52.8682 45.825 53.1812 46.0052C53.4942 46.1854 53.7683 46.426 53.9877 46.7129C54.207 46.9999 54.3671 47.3276 54.4588 47.6769C54.5505 48.0262 54.5719 48.3903 54.5218 48.748C54.0675 52.2624 52.3461 55.4902 49.6807 57.8254C47.0152 60.1606 43.5891 61.4427 40.0455 61.4309C36.5018 61.4191 33.0843 60.1143 30.4345 57.7614C27.7846 55.4085 26.0847 52.1694 25.6538 48.652C25.604 48.293 25.6262 47.9277 25.7191 47.5774C25.812 47.2272 25.9738 46.8989 26.195 46.6118C26.4162 46.3248 26.6924 46.0846 27.0074 45.9055C27.3225 45.7264 27.67 45.6118 28.0298 45.5685C28.3897 45.5252 28.7545 45.554 29.103 45.6532C29.4516 45.7525 29.7769 45.9202 30.0599 46.1466C30.3429 46.3729 30.578 46.6534 30.7514 46.9716C30.9248 47.2899 31.033 47.6395 31.0698 48ZM23.3498 25.12C24.8297 25.12 26.249 25.7079 27.2955 26.7543C28.3419 27.8008 28.9298 29.2201 28.9298 30.7C28.9298 32.1799 28.3419 33.5992 27.2955 34.6457C26.249 35.6921 24.8297 36.28 23.3498 36.28C21.8699 36.28 20.4506 35.6921 19.4042 34.6457C18.3577 33.5992 17.7698 32.1799 17.7698 30.7C17.7698 29.2201 18.3577 27.8008 19.4042 26.7543C20.4506 25.7079 21.8699 25.12 23.3498 25.12ZM56.8378 25.12C58.3177 25.12 59.737 25.7079 60.7835 26.7543C61.8299 27.8008 62.4178 29.2201 62.4178 30.7C62.4178 32.1799 61.8299 33.5992 60.7835 34.6457C59.737 35.6921 58.3177 36.28 56.8378 36.28C55.3579 36.28 53.9386 35.6921 52.8922 34.6457C51.8457 33.5992 51.2578 32.1799 51.2578 30.7C51.2578 29.2201 51.8457 27.8008 52.8922 26.7543C53.9386 25.7079 55.3579 25.12 56.8378 25.12Z" fill="#AF8965"/>
</svg>
