<svg width="36" height="30" viewBox="0 0 36 30" fill="none" xmlns="http://www.w3.org/2000/svg">
<path fill-rule="evenodd" clip-rule="evenodd" d="M6.62 0H29.2725C32.4775 0 35.035 2.6775 35.1425 6.005V26.01C35.1425 27.75 33.0925 28.58 31.975 27.2775L31.94 27.24C31.6255 26.8743 31.2358 26.5808 30.7974 26.3796C30.359 26.1784 29.8823 26.0742 29.4 26.0742C28.9177 26.0742 28.441 26.1784 28.0026 26.3796C27.5643 26.5808 27.1745 26.8743 26.86 27.24L25.0225 29.375C24.8559 29.5702 24.6489 29.7269 24.4158 29.8344C24.1828 29.9419 23.9292 29.9976 23.6725 29.9976C23.4158 29.9976 23.1622 29.9419 22.9292 29.8344C22.6961 29.7269 22.4891 29.5702 22.3225 29.375L20.4875 27.24C20.173 26.8743 19.7832 26.5808 19.3449 26.3796C18.9065 26.1784 18.4298 26.0742 17.9475 26.0742C17.4652 26.0742 16.9885 26.1784 16.5501 26.3796C16.1117 26.5808 15.722 26.8743 15.4075 27.24L13.57 29.34C13.4034 29.5352 13.1964 29.6919 12.9633 29.7994C12.7303 29.9069 12.4767 29.9626 12.22 29.9626C11.9633 29.9626 11.7097 29.9069 11.4767 29.7994C11.2436 29.6919 11.0366 29.5352 10.87 29.34L9.105 27.2775C8.79809 26.9023 8.41229 26.5993 7.97503 26.3901C7.53776 26.1809 7.05978 26.0705 6.57505 26.067C6.09032 26.0634 5.61076 26.1666 5.17045 26.3694C4.73015 26.5721 4.33992 26.8694 4.0275 27.24C2.91 28.545 0.857498 27.7125 0.857498 25.975V6.005C0.857498 2.6775 3.45 0 6.62 0ZM11.57 12.8575C12.1132 12.8579 12.6476 12.7206 13.1233 12.4584C13.599 12.1962 14.0004 11.8177 14.2901 11.3582C14.5798 10.8987 14.7482 10.3733 14.7797 9.83105C14.8112 9.28879 14.7046 8.7474 14.47 8.2575C14.373 8.36732 14.2546 8.45611 14.1219 8.51839C13.9893 8.58066 13.8453 8.6151 13.6989 8.61958C13.5524 8.62406 13.4066 8.59849 13.2705 8.54444C13.1343 8.49039 13.0106 8.40902 12.9071 8.30533C12.8036 8.20164 12.7224 8.07784 12.6686 7.94157C12.6148 7.8053 12.5894 7.65945 12.5941 7.51301C12.5989 7.36657 12.6335 7.22265 12.696 7.09013C12.7585 6.95761 12.8475 6.8393 12.9575 6.7425C12.5225 6.53615 12.0467 6.43022 11.5652 6.43255C11.0837 6.43487 10.6089 6.54539 10.1759 6.75593C9.74293 6.96647 9.36279 7.27164 9.06362 7.64889C8.76446 8.02613 8.55391 8.4658 8.44755 8.93538C8.3412 9.40496 8.34175 9.89244 8.44918 10.3618C8.5566 10.8311 8.76815 11.2703 9.06817 11.6469C9.3682 12.0234 9.74903 12.3277 10.1825 12.5373C10.616 12.7468 11.0885 12.8563 11.57 12.8575ZM25.5 7.5C25.5 7.215 25.6125 6.9425 25.8125 6.7425C25.1282 6.41555 24.3502 6.34107 23.6163 6.53222C22.8823 6.72337 22.2396 7.16784 21.8017 7.78708C21.3637 8.40632 21.1588 9.16044 21.2232 9.91614C21.2875 10.6719 21.6169 11.3805 22.1532 11.9168C22.6895 12.4531 23.3981 12.7825 24.1539 12.8468C24.9096 12.9112 25.6637 12.7063 26.2829 12.2683C26.9022 11.8304 27.3466 11.1877 27.5378 10.4537C27.7289 9.71976 27.6545 8.94185 27.3275 8.2575C27.1774 8.40629 26.9867 8.50741 26.7793 8.54816C26.5719 8.58891 26.3571 8.56747 26.1618 8.48654C25.9666 8.40561 25.7996 8.26879 25.6818 8.09327C25.5641 7.91775 25.5008 7.71136 25.5 7.5Z" fill="white"/>
</svg>
