<svg width="60" height="60" viewBox="0 0 60 60" fill="none" xmlns="http://www.w3.org/2000/svg">
<path d="M28.5 15C32.6421 15 36 11.6421 36 7.5C36 3.35786 32.6421 0 28.5 0C24.3579 0 21 3.35786 21 7.5C21 11.6421 24.3579 15 28.5 15Z" fill="white"/>
<path d="M43.302 21.99C46.5404 25.5314 48.3353 30.1572 48.333 34.956C48.333 45.702 39.48 54.42 28.563 54.42C17.643 54.42 8.778 45.702 8.778 34.956C8.778 30.027 10.65 25.533 13.722 22.104L9.414 17.901C5.28192 22.5115 2.99877 28.4859 3.003 34.677C3 48.657 14.43 60 28.509 60C42.588 60 54.003 48.66 54.003 34.677C54.0091 28.4567 51.7089 22.455 47.547 17.832L43.302 21.99Z" fill="white"/>
<path d="M13.104 11.262L13.02 16.575C13.02 16.575 13.68 19.365 18.27 20.808C22.731 22.212 29.013 21.708 33.414 23.7C37.233 25.425 38.544 28.29 38.544 28.29L38.634 23.31C38.634 23.31 38.304 20.682 34.779 19.593C31.251 18.507 25.356 18.153 18.495 15.798C15.42 14.742 13.062 11.343 13.104 11.262ZM18.099 22.656L17.91 28.5C17.91 28.5 18.39 29.745 22.644 30.978C25.188 31.716 32.736 32.379 36.642 33.972C40.059 35.364 41.637 38.634 41.637 38.634L41.997 33.765C40.869 31.005 39.567 30.321 34.971 29.133C31.839 28.323 28.251 28.179 25.482 27.258C20.049 25.449 18.102 22.659 18.102 22.659L18.099 22.656Z" fill="white"/>
<path d="M43.476 11.22V16.434C43.476 16.434 42.744 18.855 38.808 20.319C33.738 22.203 25.989 22.068 20.796 24.987C19.419 25.7387 18.3851 26.9928 17.91 28.488L17.991 22.491C17.991 22.491 18.891 20.262 23.481 18.831C29.373 16.989 33.111 17.691 38.367 15.447C41.787 13.986 43.515 11.262 43.476 11.22ZM14.676 33.642L14.469 39.396C14.469 39.396 15.372 41.226 18.045 42.366C23.154 44.55 26.757 42.945 34.26 46.362C37.647 47.901 38.445 50.448 38.445 50.448L38.427 44.67C38.427 44.67 37.986 42.9 34.701 41.811C31.416 40.725 24.237 39.984 19.362 38.151C16.011 36.891 14.634 33.6 14.676 33.642Z" fill="white"/>
<path d="M17.952 49.8599L18.033 44.3489C18.033 44.3489 18.411 42.7589 23.523 41.1269C28.341 39.5909 34.329 39.6209 37.134 38.4569C39.939 37.2869 41.994 33.7589 41.994 33.7589L41.973 39.6089C41.973 39.6089 42.12 41.6969 37.839 43.0589C32.271 44.8289 28.749 44.1989 23.262 46.2539C20.154 47.4209 18.033 49.9799 17.952 49.8599ZM38.64 23.3069L38.706 28.3289C38.706 28.3289 37.92 29.8049 34.455 31.2089C29.736 33.1289 25.446 32.0429 19.434 34.6079C17.19 35.5619 14.466 39.3959 14.466 39.3959L14.625 33.3179C14.625 33.3179 16.242 30.7079 19.155 29.6579C25.404 27.4019 27.729 29.0519 34.26 26.3579C36.468 25.4429 38.574 23.5559 38.64 23.3069Z" fill="white"/>
</svg>
