<svg width="42" height="42" viewBox="0 0 42 42" fill="none" xmlns="http://www.w3.org/2000/svg">
<path d="M21.0001 0.166656C9.50008 0.166656 0.166748 9.49999 0.166748 21C0.166748 32.5 9.50008 41.8333 21.0001 41.8333C32.5001 41.8333 41.8334 32.5 41.8334 21C41.8334 9.49999 32.5001 0.166656 21.0001 0.166656ZM30.6667 14.3333C30.3542 17.625 29.0001 25.625 28.3126 29.3125C28.0209 30.875 27.4376 31.3958 26.8959 31.4583C25.6876 31.5625 24.7709 30.6667 23.6042 29.8958C21.7709 28.6875 20.7292 27.9375 18.9584 26.7708C16.8959 25.4167 18.2292 24.6667 19.4167 23.4583C19.7292 23.1458 25.0626 18.2917 25.1667 17.8542C25.1812 17.7879 25.1793 17.7191 25.1611 17.6537C25.143 17.5884 25.1092 17.5285 25.0626 17.4792C24.9376 17.375 24.7709 17.4167 24.6251 17.4375C24.4376 17.4792 21.5209 19.4167 15.8334 23.25C15.0001 23.8125 14.2501 24.1042 13.5834 24.0833C12.8334 24.0625 11.4167 23.6667 10.3542 23.3125C9.04175 22.8958 8.02091 22.6667 8.10425 21.9375C8.14591 21.5625 8.66675 21.1875 9.64592 20.7917C15.7292 18.1458 19.7709 16.3958 21.7917 15.5625C27.5834 13.1458 28.7709 12.7292 29.5626 12.7292C29.7292 12.7292 30.1251 12.7708 30.3751 12.9792C30.5834 13.1458 30.6459 13.375 30.6667 13.5417C30.6459 13.6667 30.6876 14.0417 30.6667 14.3333Z" fill="#71522F"/>
</svg>
