<svg width="38" height="38" viewBox="0 0 38 38" fill="none" xmlns="http://www.w3.org/2000/svg">
<path d="M2.875 2.875C0.25 5.525 0.25 9.7625 0.25 18.25V19.75C0.25 28.225 0.25 32.4625 2.875 35.125C5.525 37.75 9.7625 37.75 18.25 37.75H19.75C28.225 37.75 32.4625 37.75 35.125 35.125C37.75 32.475 37.75 28.2375 37.75 19.75V18.25C37.75 9.775 37.75 5.5375 35.125 2.875C32.475 0.25 28.2375 0.25 19.75 0.25H18.25C9.775 0.25 5.5375 0.25 2.875 2.875ZM6.575 11.6625H10.875C11.0125 18.8125 14.1625 21.8375 16.6625 22.4625V11.6625H20.7V17.825C23.1625 17.5625 25.7625 14.75 26.6375 11.65H30.6625C30.3344 13.2548 29.6789 14.7746 28.7369 16.1145C27.7948 17.4545 26.5865 18.5857 25.1875 19.4375C26.7488 20.2143 28.1277 21.3134 29.233 22.6622C30.3384 24.0111 31.1451 25.579 31.6 27.2625H27.1625C26.2125 24.3 23.8375 22 20.7 21.6875V27.2625H20.2C11.65 27.2625 6.775 21.4125 6.575 11.6625Z" fill="#71522F"/>
</svg>
